<svg width="149" height="37" viewBox="0 0 149 37" fill="none" xmlns="http://www.w3.org/2000/svg">
<path d="M5.54859 18.5037C5.54907 15.5355 6.55834 12.6556 8.41082 10.3365C10.2633 8.01744 12.849 6.39681 15.7437 5.74053C18.6384 5.08424 21.6702 5.43128 24.3417 6.7247C27.0132 8.01813 29.1658 10.1811 30.4463 12.8589C31.7268 15.5366 32.0592 18.57 31.3889 21.4615C30.7187 24.353 29.0856 26.9308 26.7576 28.7721C24.4296 30.6133 21.5449 31.6087 18.5768 31.5949C15.6086 31.581 12.7334 30.5588 10.4226 28.6959L6.58283 32.5357C10.1076 35.5622 14.642 37.1518 19.285 36.9886C23.928 36.8253 28.3396 34.921 31.643 31.6543C34.9464 28.3876 36.8998 23.9975 37.1149 19.3567C37.33 14.7158 35.7912 10.1639 32.8041 6.60555C29.8171 3.04724 25.6006 0.743046 20.9926 0.150924C16.3847 -0.441197 11.7226 0.722103 7.93297 3.40962C4.14336 6.09714 1.50364 10.1121 0.538455 14.6566C-0.426731 19.2011 0.353278 23.9424 2.72346 27.9382L6.72981 23.9318C5.95128 22.2281 5.54842 20.3768 5.54859 18.5037Z" fill="#FFC000"/>
<path d="M18.6506 28.8906C24.3813 28.8906 29.0269 24.245 29.0269 18.5144C29.0269 12.7838 24.3813 8.13818 18.6506 8.13818C12.92 8.13818 8.27441 12.7838 8.27441 18.5144C8.27441 24.245 12.92 28.8906 18.6506 28.8906Z" fill="#101828"/>
<path d="M18.6514 18.2945C20.7727 18.2945 22.4923 16.5749 22.4923 14.4537C22.4923 12.3324 20.7727 10.6128 18.6514 10.6128C16.5302 10.6128 14.8105 12.3324 14.8105 14.4537C14.8105 16.5749 16.5302 18.2945 18.6514 18.2945Z" fill="white"/>
<path d="M18.7618 27.0813L26.4794 19.3636C26.5051 19.3331 26.5193 19.2946 26.5193 19.2547C26.5193 19.2149 26.5051 19.1763 26.4794 19.1459C26.4519 19.1137 26.4128 19.0937 26.3706 19.0903H10.9342C10.9122 19.0902 10.8905 19.0944 10.8702 19.1027C10.85 19.111 10.8315 19.1233 10.816 19.1388C10.8006 19.1543 10.7883 19.1727 10.78 19.193C10.7717 19.2133 10.7674 19.235 10.7676 19.2569C10.7674 19.2782 10.7723 19.2992 10.782 19.3182C10.7916 19.3371 10.8057 19.3535 10.8231 19.3658L18.5408 27.0834C18.5716 27.1099 18.611 27.1243 18.6517 27.1239C18.6923 27.1235 18.7315 27.1084 18.7618 27.0813Z" fill="white"/>
<path d="M70.5737 27.8492C71.7585 26.6089 72.6879 25.1442 73.3083 23.5396C73.9287 21.9351 74.2278 20.2225 74.1882 18.5008C74.2619 15.0134 72.9622 11.6388 70.5737 9.11588C69.3234 7.83603 67.8208 6.83491 66.1629 6.17723C64.505 5.51954 62.7287 5.2199 60.9489 5.29769C59.169 5.2199 57.3927 5.51954 55.7348 6.17723C54.077 6.83491 52.5743 7.83603 51.3241 9.11588C48.9355 11.6388 47.6358 15.0134 47.7095 18.5008C47.67 20.2225 47.969 21.9351 48.5894 23.5396C49.2098 25.1442 50.1392 26.6089 51.3241 27.8492C52.5675 29.1408 54.0683 30.1519 55.7275 30.8159C57.3867 31.4799 59.1667 31.7818 60.95 31.7016C62.7329 31.7815 64.5124 31.4795 66.1712 30.8154C67.83 30.1514 69.3305 29.1405 70.5737 27.8492ZM60.95 26.529C59.9428 26.5811 58.9372 26.399 58.0108 25.9969C57.0844 25.5948 56.2621 24.9833 55.6073 24.2098C54.2762 22.6196 53.5932 20.5792 53.6961 18.5008C53.5934 16.4116 54.2759 14.3603 55.6073 12.7564C56.2649 11.9889 57.0888 11.3843 58.0153 10.9892C58.9417 10.5942 59.9458 10.4193 60.95 10.4782C61.9533 10.4265 62.9552 10.6046 63.8805 10.9992C64.8058 11.3937 65.6305 11.9945 66.2927 12.7564C67.5943 14.3769 68.2729 16.4165 68.2039 18.5008C68.2731 20.5743 67.594 22.6028 66.2927 24.2098C65.6332 24.9777 64.8101 25.5851 63.8848 25.9867C62.9596 26.3884 61.9563 26.5737 60.95 26.529ZM84.0558 31.5239C88.687 31.5239 91.5221 29.1694 91.5221 25.6006C91.5221 23.2086 89.8944 21.533 87.205 20.8165L83.1714 19.7105C82.2158 19.461 81.7211 18.9256 81.7211 18.1761C81.7211 17.3195 82.4993 16.7489 83.6673 16.7489C85.1176 16.7489 86.002 17.4631 86.002 18.6397H91.3448C91.3448 15.3216 88.6553 13.2861 83.7373 13.2861C79.314 13.2861 76.4484 15.4981 76.4484 18.7457C76.4484 21.2072 77.9349 22.9921 80.7294 23.7052L84.9086 24.7759C85.2618 24.8136 85.5872 24.9861 85.8183 25.2581C86.0493 25.5301 86.1684 25.8808 86.1511 26.2385C86.1511 27.2375 85.3379 27.8446 84.1699 27.8446C82.5073 27.8446 81.3743 26.988 81.3743 25.8102H75.9875C75.9861 26.6238 76.1859 27.4249 76.5689 28.141C76.9519 28.857 77.5061 29.4654 78.1811 29.9109C79.9197 31.0644 81.9774 31.6293 84.0558 31.5239ZM103.588 26.7397C102.031 26.7397 101.216 26.1326 101.216 23.8134V18.1078H105.073V13.7907H101.217V8.69215H95.8031V13.7952H93.1136V18.1123H95.8031V24.9582C95.7167 26.6411 96.2038 28.3031 97.1834 29.6683C97.8115 30.244 98.5501 30.6836 99.3535 30.9598C100.157 31.2361 101.008 31.3432 101.854 31.2744C103.065 31.2826 104.274 31.187 105.469 30.9885V26.6361C104.844 26.715 104.216 26.7508 103.587 26.7431L103.588 26.7397ZM115.264 31.4532C116.338 31.4884 117.402 31.2403 118.351 30.7334C119.301 30.2266 120.103 29.4786 120.678 28.5634V30.9896H126.052V13.7895H120.678V16.2511C120.141 15.3144 119.358 14.5454 118.415 14.0291C117.472 13.5127 116.406 13.269 115.335 13.3248C114.228 13.2828 113.125 13.4917 112.109 13.9363C111.092 14.3808 110.188 15.0496 109.461 15.8934C107.943 17.7025 107.148 20.0175 107.232 22.3862C107.123 24.7576 107.892 27.0851 109.39 28.9165C110.119 29.7553 111.025 30.4187 112.041 30.8577C113.058 31.2967 114.159 31.5002 115.264 31.4532ZM116.82 26.9174C114.379 26.9174 112.754 25.0619 112.754 22.3862C112.754 19.7105 114.382 17.8902 116.82 17.8902C119.404 17.8902 120.887 19.8175 120.887 22.3862C120.89 24.9947 119.404 26.9174 116.82 26.9174ZM142.722 14.7896H142.757V16.2522C142.22 15.3155 141.437 14.5466 140.494 14.0302C139.551 13.5138 138.486 13.2701 137.414 13.3259C136.307 13.2839 135.205 13.4929 134.188 13.9374C133.172 14.3819 132.267 15.0507 131.541 15.8945C130.022 17.7037 129.227 20.0187 129.311 22.3873C129.203 24.7601 129.974 27.0886 131.474 28.9199C132.203 29.7581 133.109 30.4209 134.125 30.8593C135.142 31.2977 136.243 31.5007 137.348 31.4532C138.421 31.4884 139.486 31.2403 140.435 30.7334C141.385 30.2266 142.186 29.4786 142.761 28.5634V30.9896H148.135V6.01189H142.722V14.7896ZM138.9 26.9174C136.459 26.9174 134.833 25.0619 134.833 22.3862C134.833 19.7105 136.461 17.8902 138.9 17.8902C141.483 17.8902 142.966 19.8175 142.966 22.3862C142.969 24.9947 141.483 26.9174 138.9 26.9174Z" fill="white"/>
</svg>
